<svg width="40" height="42" viewBox="0 0 40 42" fill="none" xmlns="http://www.w3.org/2000/svg">
<path d="M32.8716 21.4208C33.2781 21.0063 33.8003 20.4734 34.3211 19.9443C35.4803 18.764 35.4803 16.8472 34.3211 15.665L33.0929 14.4125C28.6974 18.8954 22.1214 19.7944 16.8496 17.1155C20.4124 17.787 24.1059 17.2635 27.3785 15.4689C29.5681 14.2681 29.9835 11.2413 28.2258 9.44857L20.9784 2.05729C19.3585 0.405137 16.7335 0.405137 15.1154 2.05729L7.30393 10.024C12.4487 7.79455 18.6274 8.82876 22.8107 13.1248C16.4288 9.96475 8.52118 11.0859 3.22225 16.4901C2.81588 16.9046 2.29163 17.4393 1.7728 17.9684C0.615408 19.1507 0.615408 21.0655 1.7728 22.2458L2.99911 23.4966C7.39463 19.0137 13.9707 18.1146 19.2425 20.7936C15.6796 20.122 11.9861 20.6455 8.71347 22.4401C6.52387 23.6409 6.10844 26.6678 7.86629 28.4604L15.1136 35.8518C16.7335 37.5039 19.3585 37.5039 20.9767 35.8518L28.788 27.8851C23.6433 30.1145 17.4645 29.0802 13.2813 24.7843C19.6633 27.9443 27.5709 26.8231 32.8699 21.4189L32.8716 21.4208Z" fill="white"/>
</svg>
