<svg width="42" height="42" viewBox="0 0 42 42" fill="none" xmlns="http://www.w3.org/2000/svg">
<path fill-rule="evenodd" clip-rule="evenodd" d="M0 21L21.0076 0L42 21.0057L21.0076 42L0 21ZM33.4117 14.6981C32.5389 15.6726 30.6368 18.128 30.6368 21C30.6368 23.872 32.5389 26.3293 33.4117 27.3038C27.8065 27.0076 23.3223 21 23.3223 21C23.3223 21 27.8046 14.9943 33.4117 14.6981ZM8.61695 14.6981C14.2241 14.9943 18.7063 21 18.7063 21C18.7063 21 14.2241 27.0076 8.61695 27.3057C9.48972 26.3312 11.3919 23.8739 11.3919 21.0019C11.3919 18.1299 9.48972 15.6745 8.61695 14.7V14.6981ZM7.7289 14.7363C6.84085 15.7318 4.98454 18.1624 4.98454 21C4.98454 23.8471 6.85613 26.2873 7.73845 27.279L12.2799 31.8229L12.3009 31.8038C14.119 30.0248 17.1422 27.6879 20.5894 27.5102C19.7204 28.4771 17.8068 30.9363 17.8068 33.814C17.8068 36.6917 19.7204 39.151 20.5875 40.1178L21.0076 40.5573L21.4259 40.1178C22.2929 39.151 24.2065 36.6917 24.2065 33.8121C24.2065 30.9363 22.2929 28.4771 21.4259 27.5102C24.8845 27.6879 27.9172 30.042 29.7334 31.8229L34.3819 27.172L34.3933 27.1586C35.31 26.1019 37.0441 23.742 37.0441 21C37.0441 18.2484 35.2986 15.879 34.3819 14.8299L29.7545 10.2L29.7334 10.2191C27.9172 12.0019 24.8826 14.3561 21.4259 14.5338C22.2929 13.5669 24.2065 11.1076 24.2065 8.22994C24.2065 5.35223 22.2929 2.89299 21.4259 1.92611L21.0057 1.4465L20.5875 1.92611C19.7204 2.89299 17.8068 5.35223 17.8068 8.23185C17.8068 11.1076 19.7204 13.5669 20.5875 14.5338C17.1155 14.3541 14.0732 11.9828 12.2589 10.2L7.7289 14.7344V14.7363Z" fill="white"/>
</svg>
